<?xml version="1.0" standalone="no"?>
<!DOCTYPE svg PUBLIC "-//W3C//DTD SVG 20010904//EN"
 "http://www.w3.org/TR/2001/REC-SVG-20010904/DTD/svg10.dtd">
<svg version="1.0" xmlns="http://www.w3.org/2000/svg"
 width="233.000000pt" height="233.000000pt" viewBox="0 0 233.000000 233.000000"
 preserveAspectRatio="xMidYMid meet">
<metadata>
Created by potrace 1.11, written by Peter Selinger 2001-2013
</metadata>
<g transform="translate(0.000000,233.000000) scale(0.100000,-0.100000)"
fill="#000000" stroke="none">
<path d="M255 2076 c-149 -47 -248 -179 -246 -331 1 -74 5 -92 29 -148 25 -56
72 -109 133 -149 27 -17 50 -36 50 -42 1 -6 2 -267 3 -581 l1 -570 942 -3 942
-2 -1 567 c-1 313 2 577 5 588 4 11 23 29 43 40 42 22 108 94 134 145 33 64
43 161 25 228 -29 112 -96 194 -195 241 l-55 26 -885 2 c-689 1 -894 -1 -925
-11z"/>
</g>
</svg>
